<svg width="18" height="18" viewBox="0 0 18 18" fill="none" xmlns="http://www.w3.org/2000/svg">
<path fill-rule="evenodd" clip-rule="evenodd" d="M1 3.5C1 2.11929 2.11929 1 3.5 1H11V2H3.5C2.67157 2 2 2.67157 2 3.5V10H1V3.5ZM4 6.5C4 5.11929 5.11929 4 6.5 4H13.5C14.8807 4 16 5.11929 16 6.5V13.5C16 14.8807 14.8807 16 13.5 16H6.5C5.11929 16 4 14.8807 4 13.5V6.5ZM6.5 5C5.67157 5 5 5.67157 5 6.5V13.5C5 14.3284 5.67157 15 6.5 15H13.5C14.3284 15 15 14.3284 15 13.5V6.5C15 5.67157 14.3284 5 13.5 5H6.5Z" fill="#24242B"/>
</svg>
