<svg width="18" height="18" viewBox="0 0 18 18" fill="none" xmlns="http://www.w3.org/2000/svg">
<path fill-rule="evenodd" clip-rule="evenodd" d="M3 3.5C3 2.11929 4.11929 1 5.5 1H10.6716C11.3346 1 11.9705 1.26339 12.4393 1.73223L14.2678 3.56066C14.7366 4.0295 15 4.66539 15 5.32843V8H14V6H11.5C10.6716 6 10 5.32843 10 4.5V2H5.5C4.67157 2 4 2.67157 4 3.5V14.5C4 15.3284 4.67157 16 5.5 16H9V17H5.5C4.11929 17 3 15.8807 3 14.5V3.5ZM11.8536 2.56066C11.615 2.32214 11.32 2.15306 11 2.06645V4.5C11 4.77614 11.2239 5 11.5 5H13.9335C13.8469 4.67996 13.6779 4.38497 13.4393 4.14645L11.8536 2.56066Z" fill="#24242B"/>
<path d="M12 9H6V8H12V9Z" fill="#24242B"/>
<path d="M6 11H9V10H6V11Z" fill="#24242B"/>
<path d="M17.8535 14.3536L14.5 17.7071L11.1464 14.3536L11.8535 13.6464L14 15.7929V10H15V15.7929L17.1464 13.6464L17.8535 14.3536Z" fill="#24242B"/>
</svg>
