<svg width="18" height="18" viewBox="0 0 18 18" fill="none" xmlns="http://www.w3.org/2000/svg">
<path fill-rule="evenodd" clip-rule="evenodd" d="M14.3861 2.43934C13.8003 1.85355 12.8505 1.85355 12.2647 2.43934L10.7071 3.99698L13 6.28987L14.5576 4.73223C15.1434 4.14645 15.1434 3.1967 14.5576 2.61091L14.3861 2.43934ZM12.2929 6.99698L10 4.70409L3 11.7041L3 13.997L5.29289 13.997L12.2929 6.99698ZM11.5576 1.73223C12.5339 0.755923 14.1169 0.755922 15.0932 1.73223L15.2647 1.90381C16.2411 2.88012 16.2411 4.46303 15.2647 5.43934L5.70711 14.997L2 14.997L2 11.2899L11.5576 1.73223ZM17 16.997H1V15.997H17V16.997Z" fill="#24242B"/>
</svg>
