<svg width="18" height="18" viewBox="0 0 18 18" fill="none" xmlns="http://www.w3.org/2000/svg">
<path fill-rule="evenodd" clip-rule="evenodd" d="M4 5.05001V2H5V5.05001C6.14112 5.28164 7 6.29052 7 7.5C7 8.70948 6.14112 9.71836 5 9.94999V16H4V9.94999C2.85888 9.71836 2 8.70948 2 7.5C2 6.29052 2.85888 5.28164 4 5.05001ZM8.5 10.05L8.50003 2H9.50003L9.5 10.05C10.6411 10.2816 11.5 11.2905 11.5 12.5C11.5 13.7095 10.6411 14.7184 9.50001 14.95L9.50003 16L8.50003 16L8.50001 14.95C7.35888 14.7184 6.5 13.7095 6.5 12.5C6.5 11.2905 7.35888 10.2816 8.5 10.05ZM13 3.05001V2H14V3.05001C15.1411 3.28164 16 4.29052 16 5.5C16 6.70948 15.1411 7.71836 14 7.94999V16H13V7.94999C11.8589 7.71836 11 6.70948 11 5.5C11 4.29052 11.8589 3.28164 13 3.05001ZM13.5 4C12.6716 4 12 4.67157 12 5.5C12 6.32843 12.6716 7 13.5 7C14.3284 7 15 6.32843 15 5.5C15 4.67157 14.3284 4 13.5 4ZM4.5 6C3.67157 6 3 6.67157 3 7.5C3 8.32843 3.67157 9 4.5 9C5.32843 9 6 8.32843 6 7.5C6 6.67157 5.32843 6 4.5 6ZM9 11C8.17157 11 7.5 11.6716 7.5 12.5C7.5 13.3284 8.17157 14 9 14C9.82843 14 10.5 13.3284 10.5 12.5C10.5 11.6716 9.82843 11 9 11Z" fill="#24242B"/>
</svg>
