<svg fill="none" height="18" viewBox="0 0 18 18" width="18" xmlns="http://www.w3.org/2000/svg"><g fill="#24242b"><path clip-rule="evenodd" d="m2 4.5c0-1.38071 1.11929-2.5 2.5-2.5h9c1.3807 0 2.5 1.11929 2.5 2.5v9c0 1.3807-1.1193 2.5-2.5 2.5h-9c-1.38071 0-2.5-1.1193-2.5-2.5zm2.5-1.5c-.82843 0-1.5.67157-1.5 1.5v6.2929l2.7738-2.7738c.40512-.40513 1.06713-.38772 1.4504.03814l3.7534 4.17046 1.2189-1.5238c.4144-.518 1.2091-.4963 1.5947.0435l1.2088 1.6924v-7.9398c0-.82843-.6716-1.5-1.5-1.5zm10.4048 11.027-1.9274-2.6984-1.219 1.5237c-.3855.482-1.1113.5031-1.5241.0443l-3.7534-4.1704-3.4809 3.4809v1.2929c0 .8284.67157 1.5 1.5 1.5h9c.643 0 1.1915-.4046 1.4048-.973z" fill-rule="evenodd"/><path d="m13 6.5c0 .82843-.6716 1.5-1.5 1.5s-1.5-.67157-1.5-1.5.6716-1.5 1.5-1.5 1.5.67157 1.5 1.5z"/></g></svg>