<svg fill="none" height="18" viewBox="0 0 18 18" width="18" xmlns="http://www.w3.org/2000/svg"><path clip-rule="evenodd" d="m14.1213 3.87868c-1.1716-1.17157-3.0711-1.17157-4.24265 0l-.00444.00444-2.02513 1.97484-.69817-.71594 2.02292-1.97274c1.56227-1.5598 4.09327-1.55904 5.65457.00229 1.5613 1.56134 1.5621 4.0923.0023 5.65458l-1.9727 2.02295-.716-.6982 1.9793-2.02961c1.1715-1.17157 1.1716-3.07104 0-4.24261zm-7.97489 7.26782 4.99999-5.00005.7071.70711-4.99998 5.00004zm-.28848-3.29742-1.97922 2.02963c-1.17158 1.17159-1.1716 3.07099-.00003 4.24259s3.07107 1.1716 4.24264 0l.00444-.0044 2.02514-1.9749.6981.716-2.02286 1.9727c-1.56228 1.5598-4.09323 1.5591-5.65457-.0023-1.56133-1.5613-1.56209-4.0922-.0023-5.65452l1.97272-2.02296z" fill="#24242b" fill-rule="evenodd"/></svg>