<svg width="18" height="18" viewBox="0 0 18 18" fill="none" xmlns="http://www.w3.org/2000/svg">
<path fill-rule="evenodd" clip-rule="evenodd" d="M11.999 2H5.99902V1H11.999V2ZM3.99902 4H1.99902V3H15.999V4H13.9995V14.5C13.9995 15.8807 12.8802 17 11.4995 17H6.49902C5.11831 17 3.99902 15.8807 3.99902 14.5V4ZM4.99902 4V14.5C4.99902 15.3284 5.6706 16 6.49902 16H11.4995C12.3279 16 12.9995 15.3284 12.9995 14.5V4H4.99902ZM6.99902 14V6H7.99902V14H6.99902ZM9.99902 14V6H10.999V14H9.99902Z" fill="#24242B"/>
</svg>
