<svg fill="none" height="18" viewBox="0 0 18 18" width="18" xmlns="http://www.w3.org/2000/svg"><path clip-rule="evenodd" d="m5.5 2v6.5c0 .45963.09053.91475.26642 1.33939.17589.42461.4337.81051.75871 1.13551.325.325.71084.5828 1.13548.7587s.87976.2664 1.33939.2664.91475-.0905 1.3394-.2664c.4246-.1759.8105-.4337 1.1355-.7587s.5828-.7109.7587-1.13551c.1759-.42464.2664-.87976.2664-1.33939v-6.5h1v6.5c0 .59095-.1164 1.17611-.3425 1.7221-.2262.5459-.5577 1.042-.9755 1.4599-.4179.4178-.914.7493-1.4599.9755-.546.2261-1.13115.3425-1.7221.3425s-1.17611-.1164-1.72208-.3425c-.54596-.2262-1.04204-.5577-1.4599-.9755-.41786-.4179-.74933-.914-.97548-1.4599-.22614-.54599-.34254-1.13115-.34254-1.7221v-6.5zm-3.5 14v-1h14v1z" fill="#24242b" fill-rule="evenodd"/></svg>