<svg fill="none" height="18" viewBox="0 0 18 18" width="18" xmlns="http://www.w3.org/2000/svg"><path clip-rule="evenodd" d="m6 4v4.00008l3-.00006v-.00002c.26264 0 .52272-.05173.76537-.15224.24263-.10051.46313-.24783.64883-.43355.1857-.18571.333-.40619.4336-.64884.1005-.24265.1522-.50273.1522-.76537s-.0517-.52272-.1522-.76537c-.1006-.24265-.2479-.46313-.4336-.64884-.1857-.18572-.4062-.33304-.64883-.43355-.24265-.10051-.50273-.15224-.76537-.15224zm6.0627 4.57288c.2625-.31249.4761-.66384.6328-1.04215.201-.4853.3045-1.00544.3045-1.53073s-.1035-1.04543-.3045-1.53073c-.201-.48531-.4956-.92626-.8671-1.2977-.3714-.37143-.8124-.66607-1.2977-.86709s-1.00541-.30448-1.5307-.30448h-3.5c-.82843 0-1.5.67157-1.5 1.5v11.0001c0 .8284.67157 1.5 1.5 1.5h4.5c.5254 0 1.0456-.1036 1.5307-.3046.4853-.201.9263-.4956 1.2977-.8671.3715-.3714.6661-.8124.8671-1.2977s.3045-1.0054.3045-1.5307-.1035-1.0454-.3045-1.5307c-.201-.48534-.4956-.92629-.8671-1.29773-.2304-.23047-.4877-.43137-.7657-.59869zm-2.0627 1.42712-4 .0001v4h4c.2625 0 .5226-.0518.7654-.1523.2426-.1006.4631-.2479.6488-.4336s.333-.4062.4336-.6488c.1005-.2427.1522-.5028.1522-.7654s-.0517-.5227-.1522-.7654c-.1006-.2426-.2479-.4631-.4336-.6488s-.4062-.333-.6488-.4336c-.2427-.1005-.5027-.1522-.7654-.1522z" fill="#24242b" fill-rule="evenodd"/></svg>