<svg preserveAspectRatio="none" width="100%" height="100%" overflow="visible" style="display: block;" viewBox="0 0 14 14" fill="none" xmlns="http://www.w3.org/2000/svg">
<path id="Icon" fill-rule="evenodd" clip-rule="evenodd" d="M12.1213 1.87868C10.9497 0.707107 9.05022 0.707107 7.87865 1.87868L7.87421 1.88312L5.84908 3.85796L5.15091 3.14203L7.17383 1.16928C8.73611 -0.390524 11.2671 -0.389761 12.8284 1.17157C14.3897 2.73291 14.3905 5.26387 12.8307 6.82615L10.858 8.84907L10.142 8.15091L12.1213 6.12129C13.2928 4.94972 13.2929 3.05025 12.1213 1.87868ZM4.14641 9.14645L9.14641 4.14645L9.85352 4.85356L4.85352 9.85356L4.14641 9.14645ZM3.85793 5.84908L1.87871 7.87871C0.707135 9.05028 0.707107 10.9497 1.87868 12.1213C3.05025 13.2929 4.94975 13.2929 6.12132 12.1213L6.12576 12.1169L8.15087 10.142L8.84905 10.858L6.82614 12.8307C5.26386 14.3905 2.73291 14.3898 1.17157 12.8284C-0.389756 11.2671 -0.390524 8.73616 1.16927 7.17388L3.14199 5.15092L3.85793 5.84908Z" fill="var(--fill-0, #24242B)"/>
</svg>
