<svg preserveAspectRatio="none" width="100%" height="100%" overflow="visible" style="display: block;" viewBox="0 0 220 1" fill="none" xmlns="http://www.w3.org/2000/svg">
<g id="Divider (Stroke)">
<mask id="path-1-inside-1_18848_174184" fill="white">
<path fill-rule="evenodd" clip-rule="evenodd" d="M220 1H0V0H220V1Z"/>
</mask>
<path d="M0 1H-1V2H0V1ZM220 1V2H221V1H220ZM0 0V-1H-1V0H0ZM220 0H221V-1H220V0ZM0 1V2H220V1V0H0V1ZM0 0H-1V1H0H1V0H0ZM220 0V-1H0V0V1H220V0ZM220 1H221V0H220H219V1H220Z" fill="var(--stroke-0, black)" fill-opacity="0.2" mask="url(#path-1-inside-1_18848_174184)"/>
</g>
</svg>
