<svg preserveAspectRatio="none" width="100%" height="100%" overflow="visible" style="display: block;" viewBox="0 0 10 14.0001" fill="none" xmlns="http://www.w3.org/2000/svg">
<path id="Icon" fill-rule="evenodd" clip-rule="evenodd" d="M2 2V6.00008L5 6.00002V6C5.26264 6 5.52272 5.94827 5.76537 5.84776C6.00802 5.74725 6.2285 5.59993 6.41421 5.41421C6.59993 5.2285 6.74725 5.00802 6.84776 4.76537C6.94827 4.52272 7 4.26264 7 4C7 3.73736 6.94827 3.47728 6.84776 3.23463C6.74725 2.99198 6.59993 2.7715 6.41421 2.58579C6.2285 2.40007 6.00802 2.25275 5.76537 2.15224C5.52272 2.05173 5.26264 2 5 2H2ZM8.06273 6.57288C8.32523 6.26039 8.53882 5.90904 8.69552 5.53073C8.89654 5.04543 9 4.52529 9 4C9 3.47471 8.89654 2.95457 8.69552 2.46927C8.4945 1.98396 8.19986 1.54301 7.82843 1.17157C7.45699 0.800139 7.01604 0.505501 6.53073 0.304482C6.04543 0.103463 5.52529 0 5 0H1.5C0.671573 0 0 0.671573 0 1.5V12.5001C0 13.3285 0.671574 14.0001 1.5 14.0001H6C6.52544 14.0001 7.04557 13.8965 7.53073 13.6955C8.01604 13.4945 8.45699 13.1999 8.82843 12.8284C9.19986 12.457 9.4945 12.016 9.69552 11.5307C9.89654 11.0454 10 10.5253 10 10C10 9.47471 9.89654 8.95457 9.69552 8.46927C9.4945 7.98396 9.19986 7.54301 8.82843 7.17157C8.59796 6.9411 8.34072 6.7402 8.06273 6.57288ZM6 8L2 8.00008V12.0001H6C6.26249 12.0001 6.52257 11.9483 6.76537 11.8478C7.00802 11.7472 7.2285 11.5999 7.41421 11.4142C7.59993 11.2285 7.74725 11.008 7.84776 10.7654C7.94827 10.5227 8 10.2626 8 10C8 9.73736 7.94827 9.47728 7.84776 9.23463C7.74725 8.99198 7.59993 8.7715 7.41421 8.58579C7.2285 8.40007 7.00802 8.25275 6.76537 8.15224C6.52272 8.05173 6.26266 8 6.00002 8C6.00001 8 6.00001 8 6 8Z" fill="var(--fill-0, #24242B)"/>
</svg>
