<svg preserveAspectRatio="none" width="100%" height="100%" overflow="visible" style="display: block;" viewBox="0 0 52 24" fill="none" xmlns="http://www.w3.org/2000/svg">
<g id="Toggle">
<path d="M12 0.5H40C46.3513 0.5 51.5 5.64873 51.5 12C51.5 18.3513 46.3513 23.5 40 23.5H12C5.64873 23.5 0.5 18.3513 0.5 12C0.5 5.64873 5.64873 0.5 12 0.5Z" fill="var(--fill-0, #FEE2E2)"/>
<path d="M12 0.5H40C46.3513 0.5 51.5 5.64873 51.5 12C51.5 18.3513 46.3513 23.5 40 23.5H12C5.64873 23.5 0.5 18.3513 0.5 12C0.5 5.64873 5.64873 0.5 12 0.5Z" stroke="var(--stroke-0, #DA2828)"/>
<path id="ON" fill-rule="evenodd" clip-rule="evenodd" d="M13.4521 14.3428C14.0479 14.3428 14.5207 14.123 14.8706 13.6836C15.2205 13.2441 15.3955 12.6191 15.3955 11.8086C15.3955 11.0013 15.2205 10.3771 14.8706 9.93604C14.5207 9.49495 14.0479 9.27441 13.4521 9.27441C12.8564 9.27441 12.3812 9.49414 12.0264 9.93359C11.6715 10.373 11.4941 10.998 11.4941 11.8086C11.4941 12.6191 11.6715 13.2441 12.0264 13.6836C12.3812 14.123 12.8564 14.3428 13.4521 14.3428ZM16.8994 11.8086C16.8994 13.1009 16.5365 14.0905 15.8105 14.7773C15.2669 15.3372 14.4808 15.6172 13.4521 15.6172C12.4235 15.6172 11.6374 15.3372 11.0938 14.7773C10.3646 14.0905 10 13.1009 10 11.8086C10 10.4902 10.3646 9.50065 11.0938 8.83984C11.6374 8.27995 12.4235 8 13.4521 8C14.4808 8 15.2669 8.27995 15.8105 8.83984C16.5365 9.50065 16.8994 10.4902 16.8994 11.8086ZM18.0234 8.21973H19.6006L22.4668 13.2441V8.21973H23.8682V15.417H22.3643L19.4248 10.3047V15.417H18.0234V8.21973Z" fill="var(--fill-0, #DA2828)"/>
<rect id="Slider" x="31" y="3" width="18" height="18" rx="9" fill="var(--fill-0, #F9F9FA)" stroke="var(--stroke-0, #DA2828)"/>
</g>
</svg>
