<svg preserveAspectRatio="none" width="100%" height="100%" overflow="visible" style="display: block;" viewBox="0 0 20 21" fill="none" xmlns="http://www.w3.org/2000/svg">
<path id="Icon" fill-rule="evenodd" clip-rule="evenodd" d="M4 0H16V1.5H4V0ZM7.5 7H9V17H7.5V7ZM12.5 7H11V17H12.5V7ZM17 3H20V4.5H17V19.25C17 20.2165 16.2165 21 15.25 21H4.75C3.84383 21 3.0983 20.3113 3.00879 19.4287L3 19.25V4.5H0V3H3H17ZM4.5 4.5H15.5V19.25C15.5 19.3881 15.3881 19.5 15.25 19.5H4.75C4.61193 19.5 4.5 19.3881 4.5 19.25V4.5Z" fill="var(--fill-0, #24242B)"/>
</svg>
