<svg preserveAspectRatio="none" width="100%" height="100%" overflow="visible" style="display: block;" viewBox="0 0 10 12" fill="none" xmlns="http://www.w3.org/2000/svg">
<g id="Icon">
<path d="M8 0H2V1H8V0Z" fill="var(--fill-0, #24242B)"/>
<path d="M3.5 5V9H4.5V5H3.5Z" fill="var(--fill-0, #24242B)"/>
<path d="M6.5 9V5H5.5V9H6.5Z" fill="var(--fill-0, #24242B)"/>
<path fill-rule="evenodd" clip-rule="evenodd" d="M10 2V3H9V10C9 11.1046 8.10457 12 7 12H3C1.89543 12 1 11.1046 1 10V3H0V2H10ZM2 3V10C2 10.5523 2.44772 11 3 11H7C7.55228 11 8 10.5523 8 10V3H2Z" fill="var(--fill-0, #24242B)"/>
</g>
</svg>
