<svg preserveAspectRatio="none" width="100%" height="100%" overflow="visible" style="display: block;" viewBox="0 0 21.5303 21.5303" fill="none" xmlns="http://www.w3.org/2000/svg">
<path id="Icon" fill-rule="evenodd" clip-rule="evenodd" d="M1.5 8.5C1.5 4.63401 4.63401 1.5 8.5 1.5C12.366 1.5 15.5 4.63401 15.5 8.5C15.5 12.366 12.366 15.5 8.5 15.5C4.63401 15.5 1.5 12.366 1.5 8.5ZM8.5 0C3.80558 0 0 3.80558 0 8.5C0 13.1944 3.80558 17 8.5 17C10.5772 17 12.4803 16.2549 13.9568 15.0174L20.4697 21.5303L21.5303 20.4697L15.0174 13.9568C16.2549 12.4803 17 10.5772 17 8.5C17 3.80558 13.1944 0 8.5 0Z" fill="var(--fill-0, #24242B)"/>
</svg>
