<svg preserveAspectRatio="none" width="100%" height="100%" overflow="visible" style="display: block;" viewBox="0 0 52 24" fill="none" xmlns="http://www.w3.org/2000/svg">
<g id="Toggle">
<path d="M0 12C0 5.37258 5.37258 0 12 0H40C46.6274 0 52 5.37258 52 12C52 18.6274 46.6274 24 40 24H12C5.37258 24 0 18.6274 0 12Z" fill="var(--fill-0, #E7E7E7)"/>
<path d="M12 0.5H40C46.3513 0.5 51.5 5.64873 51.5 12C51.5 18.3513 46.3513 23.5 40 23.5H12C5.64873 23.5 0.5 18.3513 0.5 12C0.5 5.64873 5.64873 0.5 12 0.5Z" stroke="var(--stroke-0, black)" stroke-opacity="0.2"/>
<g id="Slider">
<rect x="3" y="3" width="18" height="18" rx="9" fill="var(--fill-0, #F9F9FA)"/>
<rect x="3.5" y="3.5" width="17" height="17" rx="8.5" stroke="var(--stroke-0, black)" stroke-opacity="0.2"/>
</g>
<g id="OFF">
<path d="M27.9421 14.5342C28.5379 14.5342 29.0099 14.3145 29.3582 13.875C29.7097 13.4355 29.8855 12.8105 29.8855 12C29.8855 11.1927 29.7097 10.5693 29.3582 10.1299C29.0099 9.68717 28.5379 9.46582 27.9421 9.46582C27.3464 9.46582 26.8712 9.68555 26.5164 10.125C26.1615 10.5645 25.9841 11.1895 25.9841 12C25.9841 12.8105 26.1615 13.4355 26.5164 13.875C26.8712 14.3145 27.3464 14.5342 27.9421 14.5342ZM31.3894 12C31.3894 13.2923 31.0265 14.2819 30.3005 14.9688C29.7569 15.5286 28.9708 15.8086 27.9421 15.8086C26.9135 15.8086 26.1274 15.5286 25.5837 14.9688C24.8546 14.2819 24.49 13.2923 24.49 12C24.49 10.6816 24.8546 9.69206 25.5837 9.03125C26.1274 8.47135 26.9135 8.19141 27.9421 8.19141C28.9708 8.19141 29.7569 8.47135 30.3005 9.03125C31.0265 9.69206 31.3894 10.6816 31.3894 12Z" fill="var(--fill-0, #505057)"/>
<path d="M32.5418 8.4209H37.6443V9.68555H34.0359V11.3408H37.1951V12.5908H34.0359V15.6084H32.5418V8.4209Z" fill="var(--fill-0, #505057)"/>
<path d="M38.655 8.4209H43.7576V9.68555H40.1492V11.3408H43.3084V12.5908H40.1492V15.6084H38.655V8.4209Z" fill="var(--fill-0, #505057)"/>
</g>
</g>
</svg>
