<svg preserveAspectRatio="none" width="100%" height="100%" overflow="visible" style="display: block;" viewBox="0 0 15 15" fill="none" xmlns="http://www.w3.org/2000/svg">
<path id="Icon" fill-rule="evenodd" clip-rule="evenodd" d="M0 2.5C0 1.11929 1.11929 0 2.5 0H10V1H2.5C1.67157 1 1 1.67157 1 2.5V9H0V2.5ZM3 5.5C3 4.11929 4.11929 3 5.5 3H12.5C13.8807 3 15 4.11929 15 5.5V12.5C15 13.8807 13.8807 15 12.5 15H5.5C4.11929 15 3 13.8807 3 12.5V5.5ZM5.5 4C4.67157 4 4 4.67157 4 5.5V12.5C4 13.3284 4.67157 14 5.5 14H12.5C13.3284 14 14 13.3284 14 12.5V5.5C14 4.67157 13.3284 4 12.5 4H5.5Z" fill="var(--fill-0, #24242B)"/>
</svg>
