<svg preserveAspectRatio="none" width="100%" height="100%" overflow="visible" style="display: block;" viewBox="0 0 14 14" fill="none" xmlns="http://www.w3.org/2000/svg">
<path id="Icon" fill-rule="evenodd" clip-rule="evenodd" d="M2 0V5H3V6H0V5H1V2H0V1H1V0H2ZM14 3.5H6V2.5H14V3.5ZM2 9.10906H0V8.10906H2.45C2.75376 8.10906 3 8.35531 3 8.65906V10.95C3 11.2538 2.75376 11.5 2.45 11.5H1V13H3V14H0.55C0.246244 14 0 13.7538 0 13.45V11.05C0 10.7462 0.246243 10.5 0.55 10.5H2V9.10906ZM14 11.5H6V10.5H14V11.5Z" fill="var(--fill-0, #24242B)"/>
</svg>
