<svg preserveAspectRatio="none" width="100%" height="100%" overflow="visible" style="display: block;" viewBox="0 0 9 18" fill="none" xmlns="http://www.w3.org/2000/svg">
<g id="Icon">
<path d="M0 1.5C0 2.32843 0.671573 3 1.5 3C2.32843 3 3 2.32843 3 1.5C3 0.671573 2.32843 0 1.5 0C0.671573 0 0 0.671573 0 1.5Z" fill="var(--fill-0, #24242B)"/>
<path d="M6 1.5C6 2.32843 6.67157 3 7.5 3C8.32843 3 9 2.32843 9 1.5C9 0.671573 8.32843 0 7.5 0C6.67157 0 6 0.671573 6 1.5Z" fill="var(--fill-0, #24242B)"/>
<path d="M0 6.5C0 7.32843 0.671573 8 1.5 8C2.32843 8 3 7.32843 3 6.5C3 5.67157 2.32843 5 1.5 5C0.671573 5 0 5.67157 0 6.5Z" fill="var(--fill-0, #24242B)"/>
<path d="M6 6.5C6 7.32843 6.67157 8 7.5 8C8.32843 8 9 7.32843 9 6.5C9 5.67157 8.32843 5 7.5 5C6.67157 5 6 5.67157 6 6.5Z" fill="var(--fill-0, #24242B)"/>
<path d="M0 16.5C0 17.3284 0.671573 18 1.5 18C2.32843 18 3 17.3284 3 16.5C3 15.6716 2.32843 15 1.5 15C0.671573 15 0 15.6716 0 16.5Z" fill="var(--fill-0, #24242B)"/>
<path d="M6 16.5C6 17.3284 6.67157 18 7.5 18C8.32843 18 9 17.3284 9 16.5C9 15.6716 8.32843 15 7.5 15C6.67157 15 6 15.6716 6 16.5Z" fill="var(--fill-0, #24242B)"/>
<path d="M0 11.5C0 12.3284 0.671573 13 1.5 13C2.32843 13 3 12.3284 3 11.5C3 10.6716 2.32843 10 1.5 10C0.671573 10 0 10.6716 0 11.5Z" fill="var(--fill-0, #24242B)"/>
<path d="M6 11.5C6 12.3284 6.67157 13 7.5 13C8.32843 13 9 12.3284 9 11.5C9 10.6716 8.32843 10 7.5 10C6.67157 10 6 10.6716 6 11.5Z" fill="var(--fill-0, #24242B)"/>
</g>
</svg>
