<svg preserveAspectRatio="none" width="100%" height="100%" overflow="visible" style="display: block;" viewBox="0 0 14.8535 16.7071" fill="none" xmlns="http://www.w3.org/2000/svg">
<g id="Icon">
<path fill-rule="evenodd" clip-rule="evenodd" d="M0 2.5C0 1.11929 1.11929 0 2.5 0H7.67157C8.33461 0 8.9705 0.263392 9.43934 0.732233L11.2678 2.56066C11.7366 3.0295 12 3.66539 12 4.32843V7H11V5H8.5C7.67157 5 7 4.32843 7 3.5V1H2.5C1.67157 1 1 1.67157 1 2.5V13.5C1 14.3284 1.67157 15 2.5 15H6V16H2.5C1.11929 16 0 14.8807 0 13.5V2.5ZM8.85355 1.56066C8.61503 1.32214 8.32004 1.15306 8 1.06645V3.5C8 3.77614 8.22386 4 8.5 4H10.9335C10.8469 3.67996 10.6779 3.38497 10.4393 3.14645L8.85355 1.56066Z" fill="var(--fill-0, #24242B)"/>
<path d="M9 8H3V7H9V8Z" fill="var(--fill-0, #24242B)"/>
<path d="M3 10H6V9H3V10Z" fill="var(--fill-0, #24242B)"/>
<path d="M14.8535 13.3536L11.5 16.7071L8.14641 13.3536L8.85352 12.6464L11 14.7929V9H12V14.7929L14.1464 12.6464L14.8535 13.3536Z" fill="var(--fill-0, #24242B)"/>
</g>
</svg>
