<svg preserveAspectRatio="none" width="100%" height="100%" overflow="visible" style="display: block;" viewBox="0 0 20.75 20.75" fill="none" xmlns="http://www.w3.org/2000/svg">
<g id="Icon">
<path fill-rule="evenodd" clip-rule="evenodd" d="M18.25 5.25H6.25C5.69772 5.25 5.25 5.69772 5.25 6.25V18.25C5.25 18.8023 5.69772 19.25 6.25 19.25H18.25C18.8023 19.25 19.25 18.8023 19.25 18.25V6.25C19.25 5.69772 18.8023 5.25 18.25 5.25ZM6.25 3.75C4.86929 3.75 3.75 4.86929 3.75 6.25V18.25C3.75 19.6307 4.86929 20.75 6.25 20.75H18.25C19.6307 20.75 20.75 19.6307 20.75 18.25V6.25C20.75 4.86929 19.6307 3.75 18.25 3.75H6.25Z" fill="var(--fill-0, #24242B)"/>
<path fill-rule="evenodd" clip-rule="evenodd" d="M0 3.25C0 1.45508 1.45507 0 3.25 0H13.75V1.5H3.25C2.2835 1.5 1.5 2.2835 1.5 3.25V13.75H0V3.25Z" fill="var(--fill-0, #24242B)"/>
</g>
</svg>
