<svg preserveAspectRatio="none" width="100%" height="100%" overflow="visible" style="display: block;" viewBox="0 0 52 24" fill="none" xmlns="http://www.w3.org/2000/svg">
<g id="Toggle" opacity="0.5">
<path d="M0 12C0 5.37258 5.37258 0 12 0H40C46.6274 0 52 5.37258 52 12C52 18.6274 46.6274 24 40 24H12C5.37258 24 0 18.6274 0 12Z" fill="var(--fill-0, #E7E7E7)"/>
<path d="M12 0.5H40C46.3513 0.5 51.5 5.64873 51.5 12C51.5 18.3513 46.3513 23.5 40 23.5H12C5.64873 23.5 0.5 18.3513 0.5 12C0.5 5.64873 5.64873 0.5 12 0.5Z" stroke="var(--stroke-0, black)" stroke-opacity="0.2"/>
<g id="Slider">
<rect x="3" y="3" width="18" height="18" rx="9" fill="var(--fill-0, #F9F9FA)"/>
<rect x="3.5" y="3.5" width="17" height="17" rx="8.5" stroke="var(--stroke-0, black)" stroke-opacity="0.2"/>
</g>
<g id="OFF">
<path d="M27.9424 14.5328C28.5381 14.5328 29.0101 14.313 29.3584 13.8736C29.71 13.4341 29.8857 12.8091 29.8857 11.9986C29.8857 11.1913 29.71 10.5679 29.3584 10.1285C29.0101 9.68577 28.5381 9.46441 27.9424 9.46441C27.3467 9.46441 26.8714 9.68414 26.5166 10.1236C26.1618 10.563 25.9844 11.188 25.9844 11.9986C25.9844 12.8091 26.1618 13.4341 26.5166 13.8736C26.8714 14.313 27.3467 14.5328 27.9424 14.5328ZM31.3896 11.9986C31.3896 13.2909 31.0267 14.2805 30.3008 14.9673C29.7572 15.5272 28.971 15.8072 27.9424 15.8072C26.9137 15.8072 26.1276 15.5272 25.584 14.9673C24.8548 14.2805 24.4902 13.2909 24.4902 11.9986C24.4902 10.6802 24.8548 9.69065 25.584 9.02984C26.1276 8.46995 26.9137 8.19 27.9424 8.19C28.971 8.19 29.7572 8.46995 30.3008 9.02984C31.0267 9.69065 31.3896 10.6802 31.3896 11.9986Z" fill="var(--fill-0, #505057)"/>
<path d="M32.542 8.41949H37.6445V9.68414H34.0361V11.3394H37.1953V12.5894H34.0361V15.607H32.542V8.41949Z" fill="var(--fill-0, #505057)"/>
<path d="M38.6553 8.41949H43.7578V9.68414H40.1494V11.3394H43.3086V12.5894H40.1494V15.607H38.6553V8.41949Z" fill="var(--fill-0, #505057)"/>
</g>
</g>
</svg>
