<svg preserveAspectRatio="none" width="100%" height="100%" overflow="visible" style="display: block;" viewBox="0 0 15 12" fill="none" xmlns="http://www.w3.org/2000/svg">
<g id="Icon">
<path fill-rule="evenodd" clip-rule="evenodd" d="M15 2.5H7V1.5H15V2.5ZM15 10.5H7V9.5H15V10.5Z" fill="#24242B"/>
<path d="M4 10C4 11.1046 3.10457 12 2 12C0.895431 12 0 11.1046 0 10C0 8.89543 0.895431 8 2 8C3.10457 8 4 8.89543 4 10Z" fill="var(--fill-0, #24242B)"/>
<path d="M4 2C4 3.10457 3.10457 4 2 4C0.895431 4 0 3.10457 0 2C0 0.895431 0.895431 0 2 0C3.10457 0 4 0.895431 4 2Z" fill="var(--fill-0, #24242B)"/>
</g>
</svg>
