<svg preserveAspectRatio="none" width="100%" height="100%" overflow="visible" style="display: block;" viewBox="0 0 22 21.9052" fill="none" xmlns="http://www.w3.org/2000/svg">
<path id="Icon" fill-rule="evenodd" clip-rule="evenodd" d="M19.1131 3.23808C19.5036 3.62861 19.5037 4.26179 19.1131 4.65233L15.981 7.78459L13.1217 4.92514L16.2539 1.79292C16.6444 1.4024 17.2775 1.40241 17.6681 1.79294L19.1131 3.23808ZM12.0611 5.98581L14.9204 8.84527L6.36067 17.4054L3.50073 17.4055V14.5463L12.0611 5.98581ZM20.1738 5.71301C21.1501 4.73668 21.1501 3.15373 20.1738 2.1774L18.7287 0.732251C17.7524 -0.244072 16.1696 -0.244085 15.1933 0.732221L2.22044 13.7052L2.00076 13.9249V14.2356L2.00076 18.1555L2.00076 18.9056L2.75077 18.9056L6.67136 18.9054L6.982 18.9054L7.20165 18.6857L20.1738 5.71301ZM0 21.9052H22V20.4052H0V21.9052Z" fill="var(--fill-0, #24242B)"/>
</svg>
