<svg preserveAspectRatio="none" width="100%" height="100%" overflow="visible" style="display: block;" viewBox="0 0 14 14" fill="none" xmlns="http://www.w3.org/2000/svg">
<path id="Icon" fill-rule="evenodd" clip-rule="evenodd" d="M2 3.05001V0H3V3.05001C4.14112 3.28164 5 4.29052 5 5.5C5 6.70948 4.14112 7.71836 3 7.94999V14H2V7.94999C0.85888 7.71836 0 6.70948 0 5.5C0 4.29052 0.85888 3.28164 2 3.05001ZM6.5 8.05001L6.50003 0H7.50003L7.5 8.05001C8.64112 8.28165 9.5 9.29052 9.5 10.5C9.5 11.7095 8.64112 12.7184 7.50001 12.95L7.50003 14L6.50003 14L6.50001 12.95C5.35888 12.7184 4.5 11.7095 4.5 10.5C4.5 9.29052 5.35888 8.28164 6.5 8.05001ZM11 1.05001V0H12V1.05001C13.1411 1.28164 14 2.29052 14 3.5C14 4.70948 13.1411 5.71836 12 5.94999V14H11V5.94999C9.85888 5.71836 9 4.70948 9 3.5C9 2.29052 9.85888 1.28164 11 1.05001ZM11.5 2C10.6716 2 10 2.67157 10 3.5C10 4.32843 10.6716 5 11.5 5C12.3284 5 13 4.32843 13 3.5C13 2.67157 12.3284 2 11.5 2ZM2.5 4C1.67157 4 1 4.67157 1 5.5C1 6.32843 1.67157 7 2.5 7C3.32843 7 4 6.32843 4 5.5C4 4.67157 3.32843 4 2.5 4ZM7 9C6.17157 9 5.5 9.67157 5.5 10.5C5.5 11.3284 6.17157 12 7 12C7.82843 12 8.5 11.3284 8.5 10.5C8.5 9.67157 7.82843 9 7 9Z" fill="var(--fill-0, #24242B)"/>
</svg>
