<svg preserveAspectRatio="none" width="100%" height="100%" overflow="visible" style="display: block;" viewBox="0 0 14 14" fill="none" xmlns="http://www.w3.org/2000/svg">
<g id="Icon">
<path fill-rule="evenodd" clip-rule="evenodd" d="M0 2.5C0 1.11929 1.11929 0 2.5 0H11.5C12.8807 0 14 1.11929 14 2.5V11.5C14 12.8807 12.8807 14 11.5 14H2.5C1.11929 14 0 12.8807 0 11.5V2.5ZM2.5 1C1.67157 1 1 1.67157 1 2.5V8.79289L3.7738 6.0191C4.17892 5.61397 4.84093 5.63138 5.2242 6.05724L8.97757 10.2277L10.1965 8.70392C10.6109 8.18594 11.4056 8.20759 11.7912 8.74738L13 10.4398V2.5C13 1.67157 12.3284 1 11.5 1H2.5ZM12.9048 12.027L10.9774 9.32862L9.75844 10.8523C9.37289 11.3343 8.64713 11.3554 8.23427 10.8966L4.4809 6.7262L1 10.2071V11.5C1 12.3284 1.67157 13 2.5 13H11.5C12.143 13 12.6915 12.5954 12.9048 12.027Z" fill="#24242B"/>
<path d="M11 4.5C11 5.32843 10.3284 6 9.5 6C8.67157 6 8 5.32843 8 4.5C8 3.67157 8.67157 3 9.5 3C10.3284 3 11 3.67157 11 4.5Z" fill="var(--fill-0, #24242B)"/>
</g>
</svg>
