<svg preserveAspectRatio="none" width="100%" height="100%" overflow="visible" style="display: block;" viewBox="0 0 14 14" fill="none" xmlns="http://www.w3.org/2000/svg">
<path id="Icon" fill-rule="evenodd" clip-rule="evenodd" d="M3.5 0V6.5C3.5 6.95963 3.59053 7.41475 3.76642 7.83939C3.94231 8.26403 4.20012 8.64987 4.52513 8.97487C4.85013 9.29988 5.23597 9.55769 5.66061 9.73358C6.08525 9.90947 6.54037 10 7 10C7.45963 10 7.91475 9.90947 8.33939 9.73358C8.76403 9.55769 9.14987 9.29988 9.47487 8.97487C9.79988 8.64987 10.0577 8.26403 10.2336 7.83939C10.4095 7.41475 10.5 6.95963 10.5 6.5V0H11.5V6.5C11.5 7.09095 11.3836 7.67611 11.1575 8.22207C10.9313 8.76804 10.5998 9.26412 10.182 9.68198C9.76412 10.0998 9.26804 10.4313 8.72207 10.6575C8.17611 10.8836 7.59095 11 7 11C6.40905 11 5.82389 10.8836 5.27792 10.6575C4.73196 10.4313 4.23588 10.0998 3.81802 9.68198C3.40016 9.26412 3.06869 8.76804 2.84254 8.22207C2.6164 7.67611 2.5 7.09095 2.5 6.5V0H3.5ZM0 14V13H14V14H0Z" fill="var(--fill-0, #24242B)"/>
</svg>
